<mxfile><diagram id="2bC2aArOCj06FBs-n_nk" name="Page-1"><mxGraphModel dx="678" dy="460" grid="1" gridSize="10" guides="1" tooltips="1" connect="1" arrows="1" fold="1" page="1" pageScale="1" pageWidth="850" pageHeight="1100" math="0" shadow="0"><root><mxCell id="0"/><mxCell id="1" parent="0"/><mxCell id="2" value="&lt;span style=&quot;font-size: 16px;&quot;&gt;Start&lt;/span&gt;" style="ellipse;whiteSpace=wrap;html=1;" vertex="1" parent="1"><mxGeometry x="220" y="30" width="90" height="40" as="geometry"/></mxCell><mxCell id="3" value="" style="endArrow=classic;html=1;fontSize=16;" edge="1" parent="1"><mxGeometry width="50" height="50" relative="1" as="geometry"><mxPoint x="264.5" y="70" as="sourcePoint"/><mxPoint x="265" y="100" as="targetPoint"/></mxGeometry></mxCell><mxCell id="4" value="Importing Required Dependecies&lt;br&gt;" style="rounded=0;whiteSpace=wrap;html=1;fontSize=16;" vertex="1" parent="1"><mxGeometry x="190" y="100" width="150" height="40" as="geometry"/></mxCell><mxCell id="5" value="Load the Datasets" style="rounded=0;whiteSpace=wrap;html=1;fontSize=16;" vertex="1" parent="1"><mxGeometry x="190" y="180" width="150" height="50" as="geometry"/></mxCell><mxCell id="6" value="" style="endArrow=classic;html=1;fontSize=16;" edge="1" parent="1"><mxGeometry width="50" height="50" relative="1" as="geometry"><mxPoint x="264.5" y="140" as="sourcePoint"/><mxPoint x="264.5" y="180" as="targetPoint"/></mxGeometry></mxCell><mxCell id="7" value="Analysis and Pre-processing" style="rounded=0;whiteSpace=wrap;html=1;fontSize=16;" vertex="1" parent="1"><mxGeometry x="188.75" y="270" width="152.5" height="40" as="geometry"/></mxCell><mxCell id="8" value="" style="endArrow=classic;html=1;fontSize=16;exitX=0.5;exitY=1;exitDx=0;exitDy=0;" edge="1" parent="1" source="5"><mxGeometry width="50" height="50" relative="1" as="geometry"><mxPoint x="264.5" y="240" as="sourcePoint"/><mxPoint x="264.5" y="270" as="targetPoint"/></mxGeometry></mxCell><mxCell id="9" value="SMOTE" style="rounded=0;whiteSpace=wrap;html=1;fontSize=16;" vertex="1" parent="1"><mxGeometry x="205" y="340" width="120" height="40" as="geometry"/></mxCell><mxCell id="10" value="" style="endArrow=classic;html=1;fontSize=16;" edge="1" parent="1"><mxGeometry width="50" height="50" relative="1" as="geometry"><mxPoint x="264.5" y="310" as="sourcePoint"/><mxPoint x="264.5" y="340" as="targetPoint"/></mxGeometry></mxCell><mxCell id="11" value="Model Training" style="rounded=0;whiteSpace=wrap;html=1;fontSize=16;" vertex="1" parent="1"><mxGeometry x="205" y="430" width="120" height="40" as="geometry"/></mxCell><mxCell id="12" value="" style="endArrow=classic;html=1;fontSize=16;" edge="1" parent="1"><mxGeometry width="50" height="50" relative="1" as="geometry"><mxPoint x="264.5" y="380" as="sourcePoint"/><mxPoint x="264.5" y="430" as="targetPoint"/></mxGeometry></mxCell><mxCell id="13" value="Model Deployment" style="rounded=0;whiteSpace=wrap;html=1;fontSize=16;" vertex="1" parent="1"><mxGeometry x="182.5" y="500" width="165" height="40" as="geometry"/></mxCell><mxCell id="14" value="END" style="ellipse;whiteSpace=wrap;html=1;fontSize=16;" vertex="1" parent="1"><mxGeometry x="205" y="570" width="120" height="50" as="geometry"/></mxCell><mxCell id="15" value="" style="endArrow=classic;html=1;fontSize=16;" edge="1" parent="1"><mxGeometry width="50" height="50" relative="1" as="geometry"><mxPoint x="264.5" y="540" as="sourcePoint"/><mxPoint x="264.5" y="570" as="targetPoint"/></mxGeometry></mxCell><mxCell id="16" value="" style="endArrow=classic;html=1;fontSize=16;" edge="1" parent="1"><mxGeometry width="50" height="50" relative="1" as="geometry"><mxPoint x="264.5" y="470" as="sourcePoint"/><mxPoint x="264.5" y="500" as="targetPoint"/></mxGeometry></mxCell></root></mxGraphModel></diagram></mxfile>